<?xml version="1.0" encoding="UTF-8" standalone="no"?>
<!-- Created with Inkscape (http://www.inkscape.org/) -->

<svg
   width="1920"
   height="1080"
   viewBox="0 0 507.99999 285.75001"
   version="1.1"
   id="svg5"
   inkscape:version="1.1.1 (eb90963e84, 2021-10-02)"
   sodipodi:docname="finalLogo.svg"
   xmlns:inkscape="http://www.inkscape.org/namespaces/inkscape"
   xmlns:sodipodi="http://sodipodi.sourceforge.net/DTD/sodipodi-0.dtd"
   xmlns="http://www.w3.org/2000/svg"
   xmlns:svg="http://www.w3.org/2000/svg">
  <sodipodi:namedview
     id="namedview7"
     pagecolor="#ffffff"
     bordercolor="#666666"
     borderopacity="1.0"
     inkscape:pageshadow="2"
     inkscape:pageopacity="0.0"
     inkscape:pagecheckerboard="0"
     inkscape:document-units="px"
     showgrid="false"
     units="px"
     inkscape:zoom="0.19678665"
     inkscape:cx="121.95949"
     inkscape:cy="180.39842"
     inkscape:window-width="1366"
     inkscape:window-height="704"
     inkscape:window-x="0"
     inkscape:window-y="27"
     inkscape:window-maximized="1"
     inkscape:current-layer="layer1" />
  <defs
     id="defs2">
    <rect
       x="635.13027"
       y="694.1948"
       width="360.05878"
       height="139.19574"
       id="rect13302" />
  </defs>
  <g
     inkscape:label="Layer 1"
     inkscape:groupmode="layer"
     id="layer1">
    <path
       style="opacity:0.68927;fill:#6c5353;fill-opacity:1;stroke:#000000;stroke-width:0.434972px;stroke-linecap:butt;stroke-linejoin:miter;stroke-opacity:1"
       d="m 145.91427,140.17977 c 7.28804,-4.80068 10.10655,-20.11798 18.66068,-22.33669 3.35039,-0.869 6.02399,1.07951 9.45171,-0.12898 3.03988,-1.07178 11.58762,-11.29206 21.29436,-4.45686 9.21802,6.49104 20.232,102.70129 11.88985,118.10429 -7.77246,14.35113 -17.49794,10.68973 -27.22196,4.5012 -5.21688,-3.32011 -10.52738,2.53654 -15.538,-4.42285 -3.7151,-5.16 -8.22435,-7.29091 -11.47025,-16.45757 -2.05134,-5.79314 -0.0223,17.61848 -10.08009,13.91226 -11.55438,-4.25776 -23.49082,-48.64157 -19.11441,-65.61357 7.51489,-29.14326 9.0585,-73.747163 26.34062,-98.891243 C 178.15591,23.609656 222.05403,-3.4225015 264.65137,3.2335968 337.33246,19.830011 352.863,39.275334 384.19877,112.9806 390.18,157.87621 366.67934,204.455 343.99183,240.82237 327.2423,267.7753 323.84858,263.4074 323.84858,263.4074 c 0,0 -15.87514,20.63278 -19.42532,20.10471 -4.29219,-0.63847 -10.78932,1.02935 -15.40288,-1.19681 -9.20932,-4.44368 8.40736,-15.68787 -5.77466,-10.44082 -21.38762,7.91298 -39.95751,-4.97348 -45.7617,-19.99923 24.68772,-44.0297 10.42126,-22.60227 33.05192,-46.13927 40.53039,-42.62847 25.13156,-37.21986 40.53039,-42.62847 12.8684,-4.51984 31.01921,42.67197 30.54394,52.72945 -0.0514,1.0874 10.58776,-14.69059 11.24682,-15.14061 17.50733,-14.9578 14.11915,-30.77097 20.44131,-44.87499 C 380.94336,136.41394 362.98701,116.48793 357.71375,100.031 340.34628,74.613157 316.25786,51.671964 287.42154,39.700665 222.13231,20.698027 135.80128,66.24143 145.91427,140.17982 Z"
       id="path1373"
       sodipodi:nodetypes="cssssssssssccccsssccsscccccc" />
    <text
       xml:space="preserve"
       transform="matrix(0.36178664,0,0,0.66272953,-2.5736289,-375.09113)"
       id="text13300"
       style="font-style:normal;font-weight:normal;font-size:74.6667px;line-height:1.25;font-family:sans-serif;white-space:pre;shape-inside:url(#rect13302);opacity:1;fill:#e9afaf;fill-opacity:1;stroke:none"
       inkscape:transform-center-x="9.4029326"
       inkscape:transform-center-y="8.0012981"><tspan
         x="635.13086"
         y="760.25784"
         id="tspan1625"><tspan
           style="font-weight:bold;-inkscape-font-specification:'sans-serif Bold'"
           id="tspan1623">Verse</tspan></tspan></text>
  </g>
</svg>
